<svg width="161" height="35" viewBox="0 0 161 35" fill="none" xmlns="http://www.w3.org/2000/svg">
<g clip-path="url(#clip0_2_26)">
<path d="M27.02 16.6989C26.314 16.2106 25.5159 15.8712 24.6744 15.7017C23.8328 15.5321 22.9656 15.5359 22.1256 15.7128C21.2856 15.8896 20.4904 16.2359 19.7887 16.7304C19.087 17.225 18.4935 17.8573 18.0444 18.5889C17.3862 19.62 16.4428 20.4377 15.3287 20.9427C14.2146 21.4477 12.9778 21.6183 11.7685 21.4338C10.5593 21.2493 9.42969 20.7176 8.5169 19.9033C7.60411 19.089 6.94744 18.0271 6.62666 16.8467C6.62666 16.8467 6.62666 16.8078 6.62666 16.7845V16.7067C6.38826 15.8913 6.27806 15.0438 6.3 14.1945C6.3 8.53228 12.11 2.23228 20.4789 2.23228C23.662 2.25542 26.7652 3.23076 29.3892 5.03275C32.0132 6.83475 34.0377 9.38089 35.2022 12.3434C35.2022 12.2812 35.2022 12.2189 35.14 12.1489C33.7565 8.10762 30.9836 4.68847 27.3151 2.50029C23.6466 0.312119 19.3205 -0.503039 15.1071 0.19996C10.8938 0.902959 7.06674 3.07848 4.30734 6.33917C1.54795 9.59985 0.0353494 13.734 0.0388856 18.0056C0.0388856 26.9112 6.46333 34.5334 15.3689 34.5334C18.4118 34.6317 21.4085 33.7695 23.9339 32.0691C26.4593 30.3687 28.3854 27.9165 29.4389 25.0601C30.0387 23.598 30.1261 21.9759 29.687 20.4578C29.2478 18.9397 28.3078 17.6149 27.02 16.6989Z" fill="#003863"/>
<path d="M35.2955 12.7244C34.1889 9.66663 32.1715 7.02155 29.5153 5.14554C26.8592 3.26953 23.6918 2.25274 20.44 2.23218C12.0711 2.23218 6.2611 8.53218 6.2611 14.1944C6.23915 15.0437 6.34936 15.8912 6.58776 16.7066C6.48092 16.2845 6.42607 15.8509 6.42443 15.4155C6.42443 9.51995 12.3278 5.43662 18.3944 5.43662C20.3473 5.43662 22.2811 5.82128 24.0854 6.56862C25.8896 7.31596 27.529 8.41136 28.9099 9.79227C30.2908 11.1732 31.3862 12.8126 32.1335 14.6168C32.8809 16.4211 33.2655 18.3548 33.2655 20.3077C33.266 23.3579 32.4152 26.3476 30.8089 28.9405C29.2026 31.5334 26.9045 33.6265 24.1733 34.9844C28.5265 33.406 32.1076 30.2165 34.1773 26.0743C36.247 21.932 36.6473 17.1532 35.2955 12.7244Z" fill="#E4032E"/>
<path d="M62.3544 9.31772V11.5966H50.5711V9.31772H55.0822V6.78216H57.9367V9.31772H62.3544ZM61.9733 17.9355C61.9732 18.6153 61.8246 19.2869 61.5378 19.9033C61.2561 20.5188 60.8572 21.0736 60.3633 21.5366C59.857 21.9934 59.2755 22.3592 58.6444 22.6177C57.9865 22.891 57.2802 23.0286 56.5678 23.0222C55.8555 23.0271 55.1494 22.8896 54.4911 22.6177C53.8676 22.3627 53.2957 21.9964 52.8033 21.5366C52.3095 21.0736 51.9106 20.5188 51.6289 19.9033C51.3422 19.2869 51.1937 18.6153 51.1937 17.9355C51.1937 17.2557 51.3422 16.5841 51.6289 15.9677C51.9071 15.3569 52.3067 14.8092 52.8033 14.3577C53.5587 13.6225 54.5112 13.1224 55.5454 12.918C56.5795 12.7137 57.6507 12.8139 58.6289 13.2066C59.2641 13.4675 59.8465 13.8417 60.3478 14.311C60.8444 14.7625 61.244 15.3103 61.5222 15.921C61.8188 16.5457 61.9729 17.2284 61.9733 17.9199V17.9355ZM59.43 17.9355C59.4359 17.5621 59.3667 17.1914 59.2264 16.8453C59.0861 16.4992 58.8776 16.1849 58.6133 15.921C58.3507 15.6546 58.0376 15.443 57.6925 15.2986C57.3473 15.1542 56.9769 15.0799 56.6028 15.0799C56.2286 15.0799 55.8582 15.1542 55.5131 15.2986C55.1679 15.443 54.8549 15.6546 54.5922 15.921C54.3244 16.1831 54.1126 16.4967 53.9696 16.8429C53.8265 17.1892 53.7552 17.5609 53.76 17.9355C53.7398 18.3203 53.7982 18.7051 53.9316 19.0666C54.065 19.4281 54.2705 19.7587 54.5357 20.0382C54.801 20.3177 55.1203 20.5403 55.4744 20.6924C55.8284 20.8445 56.2097 20.9229 56.595 20.9229C56.9803 20.9229 57.3616 20.8445 57.7156 20.6924C58.0696 20.5403 58.389 20.3177 58.6542 20.0382C58.9195 19.7587 59.125 19.4281 59.2584 19.0666C59.3918 18.7051 59.4502 18.3203 59.43 17.9355ZM68.67 6.43994H71.2678V27.8599H68.67V17.9899H66.1733V27.7355H63.7233V6.46327H66.1733V15.5399H68.67V6.43994Z" fill="#595958"/>
<path d="M85.12 12.0399C85.1263 12.7763 84.9668 13.5047 84.6533 14.171C84.0351 15.5091 82.9188 16.5529 81.5422 17.0799C80.8391 17.3685 80.0855 17.5139 79.3255 17.5077C78.5631 17.5133 77.8071 17.3679 77.1011 17.0799C76.4245 16.8004 75.8029 16.4027 75.2655 15.9055C74.7392 15.4126 74.3116 14.824 74.0055 14.171C73.6921 13.5047 73.5326 12.7763 73.5389 12.0399C73.5352 11.3038 73.6946 10.576 74.0055 9.90883C74.306 9.25942 74.7346 8.6774 75.2655 8.19771C75.8098 7.68434 76.4421 7.27332 77.1322 6.98438C77.8382 6.69644 78.5942 6.55105 79.3567 6.5566C80.1166 6.55043 80.8702 6.69586 81.5733 6.98438C82.2537 7.26475 82.8781 7.6652 83.4167 8.1666C83.931 8.65572 84.3503 9.23588 84.6533 9.87772C84.9688 10.5544 85.1283 11.2933 85.12 12.0399ZM82.5455 12.0399C82.5455 11.1935 82.2098 10.3816 81.612 9.7823C81.0142 9.18303 80.2031 8.84533 79.3567 8.84327C78.9357 8.8332 78.5174 8.91178 78.1288 9.07392C77.7402 9.23606 77.39 9.47812 77.1011 9.78438C76.5134 10.3897 76.1846 11.2001 76.1846 12.0438C76.1846 12.8875 76.5134 13.698 77.1011 14.3033C77.392 14.606 77.7429 14.8446 78.1312 15.004C78.5196 15.1633 78.937 15.2399 79.3567 15.2288C79.776 15.2309 80.1916 15.1498 80.5794 14.9903C80.9673 14.8308 81.3196 14.5959 81.6161 14.2994C81.9127 14.0029 82.1475 13.6505 82.307 13.2627C82.4665 12.8749 82.5476 12.4593 82.5455 12.0399ZM90.2067 23.1544C90.2139 23.8725 90.0569 24.5828 89.7478 25.231C89.4552 25.8645 89.0493 26.4391 88.55 26.9266C88.0198 27.4217 87.4063 27.8193 86.7378 28.101C86.0431 28.3904 85.2969 28.5359 84.5444 28.5288C83.7869 28.5359 83.0357 28.3904 82.3355 28.101C81.6613 27.8214 81.0423 27.4237 80.5078 26.9266C79.9965 26.4443 79.5821 25.8688 79.2867 25.231C78.9775 24.5828 78.8205 23.8725 78.8278 23.1544C78.8222 22.4314 78.979 21.7164 79.2867 21.0622C79.5765 20.4257 79.9918 19.8543 80.5078 19.3822C81.0423 18.8851 81.6613 18.4874 82.3355 18.2077C83.0352 17.9159 83.7864 17.7678 84.5444 17.7722C85.2975 17.7678 86.0436 17.9159 86.7378 18.2077C87.4063 18.4894 88.0198 18.887 88.55 19.3822C89.0542 19.8594 89.4609 20.43 89.7478 21.0622C90.0588 21.7235 90.2157 22.4469 90.2067 23.1777V23.1544ZM87.6167 23.1544C87.621 22.7502 87.5417 22.3495 87.3837 21.9774C87.2258 21.6053 86.9926 21.2698 86.6989 20.9922C86.2637 20.5768 85.7174 20.2966 85.1261 20.1853C84.5349 20.0741 83.9241 20.1367 83.3677 20.3655C82.8113 20.5943 82.3332 20.9795 81.9912 21.4745C81.6493 21.9695 81.4582 22.553 81.4411 23.1544C81.4348 23.5575 81.5116 23.9575 81.6669 24.3295C81.8221 24.7015 82.0524 25.0376 82.3433 25.3166C82.9249 25.8866 83.7068 26.2059 84.5211 26.2059C85.3354 26.2059 86.1173 25.8866 86.6989 25.3166C86.9949 25.0407 87.2296 24.7056 87.3877 24.3331C87.5459 23.9606 87.6239 23.559 87.6167 23.1544ZM91.1711 8.74994H94.2433V11.0833H91.1711V13.0511H94.2433V15.3844H91.1711V17.8266H88.5267V6.43994H91.1711V8.74994Z" fill="#595958"/>
<path d="M96.2344 22.1434V19.81H115.92V22.1434H107.364V27.86H104.704V22.1434H96.2344ZM106.073 6.32336L115.22 15.7811L113.221 17.5623L106.073 10.1423L98.9178 17.5623L96.9189 15.7811L106.073 6.32336Z" fill="#595958"/>
<path d="M124.491 6.32336L131.071 17.2978L128.909 18.5889L124.491 10.9589L120.12 18.7367L117.911 17.4378L124.491 6.32336ZM122.158 20.2689V25.0756H136.562V27.4089H119.451V20.2534L122.158 20.2689ZM136.01 20.1523H133.366V6.44003H136.01V11.4878H139.082V14.1011H136.018L136.01 20.1523Z" fill="#595958"/>
<path d="M141.073 19.9811H160.767V22.3144H152.211V27.8367H149.543V22.3144H141.073V19.9811ZM145.273 9.51999H156.536V6.80554H159.18V17.0955H142.668V6.80554H145.281L145.273 9.51999ZM156.536 11.8533H145.281V14.7622H156.543L156.536 11.8533Z" fill="#595958"/>
</g>
<defs>
<clipPath id="clip0_2_26">
<rect width="160.767" height="35" fill="white"/>
</clipPath>
</defs>
</svg>
